<?xml version="1.0" encoding="UTF-8"?>
<!DOCTYPE svg PUBLIC "-//W3C//DTD SVG 1.1//EN" "http://www.w3.org/Graphics/SVG/1.1/DTD/svg11.dtd">
<svg xmlns="http://www.w3.org/2000/svg" version="1.1" width="32px" height="32px" style="shape-rendering:geometricPrecision; text-rendering:geometricPrecision; image-rendering:optimizeQuality; fill-rule:evenodd; clip-rule:evenodd" xmlns:xlink="http://www.w3.org/1999/xlink">
<g><path style="opacity:1" fill="#040202" d="M -0.5,-0.5 C 10.1667,-0.5 20.8333,-0.5 31.5,-0.5C 31.5,10.1667 31.5,20.8333 31.5,31.5C 20.8333,31.5 10.1667,31.5 -0.5,31.5C -0.5,20.8333 -0.5,10.1667 -0.5,-0.5 Z"/></g>
<g><path style="opacity:1" fill="#e3e3e3" d="M 23.5,4.5 C 24.4511,5.91866 24.7845,7.58533 24.5,9.5C 22.1667,11.1667 20.1667,13.1667 18.5,15.5C 16.8333,16.5 15.5,17.8333 14.5,19.5C 13.8333,19.5 13.5,19.8333 13.5,20.5C 10.8544,22.4789 8.52109,24.8122 6.5,27.5C 5.35901,25.5787 5.19234,23.5787 6,21.5C 8.16667,19.3333 10.3333,17.1667 12.5,15C 10.3171,12.6496 7.98375,10.483 5.5,8.5C 10.0628,6.45833 13.2294,7.79167 15,12.5C 17.7028,9.62859 20.5361,6.96192 23.5,4.5 Z"/></g>
<g><path style="opacity:1" fill="#717171" d="M 23.5,4.5 C 23.56,3.95691 23.8933,3.62358 24.5,3.5C 25.7928,5.63648 25.7928,7.63648 24.5,9.5C 24.7845,7.58533 24.4511,5.91866 23.5,4.5 Z"/></g>
<g><path style="opacity:1" fill="#dd191e" d="M 19.5,16.5 C 27.79,22.6176 26.9567,23.951 17,20.5C 15.7387,20.7591 14.7387,21.4258 14,22.5C 13.5357,21.9056 13.369,21.2389 13.5,20.5C 13.5,19.8333 13.8333,19.5 14.5,19.5C 16.4113,18.925 18.078,17.925 19.5,16.5 Z"/></g>
<g><path style="opacity:1" fill="#6c1810" d="M 18.5,15.5 C 19.1667,15.5 19.5,15.8333 19.5,16.5C 18.078,17.925 16.4113,18.925 14.5,19.5C 15.5,17.8333 16.8333,16.5 18.5,15.5 Z"/></g>
</svg>
